<?xml version="1.0" encoding="UTF-8"?>
<svg xmlns="http://www.w3.org/2000/svg" xmlns:xlink="http://www.w3.org/1999/xlink" width="150px" height="150px" viewBox="0 0 150 150" version="1.1">
<g id="surface1">
<path style=" stroke:none;fill-rule:nonzero;fill:rgb(0%,0%,0%);fill-opacity:1;" d="M 75 0 C 95.710938 0 114.460938 8.394531 128.03125 21.96875 C 141.605469 35.539062 150 54.289062 150 75 C 150 95.710938 141.605469 114.460938 128.03125 128.03125 C 114.460938 141.605469 95.710938 150 75 150 C 54.289062 150 35.539062 141.605469 21.96875 128.03125 C 8.394531 114.460938 0 95.710938 0 75 C 0 54.289062 8.394531 35.539062 21.96875 21.96875 C 35.539062 8.394531 54.289062 0 75 0 Z M 75 0 "/>
<path style=" stroke:none;fill-rule:nonzero;fill:rgb(100%,100%,100%);fill-opacity:1;" d="M 96.535156 61.59375 L 83.789062 61.59375 L 83.789062 102.46875 L 66.210938 102.46875 L 66.210938 61.59375 L 53.464844 61.59375 L 53.464844 47.53125 L 96.535156 47.53125 Z M 96.535156 61.59375 "/>
</g>
</svg>
